<svg width="1200" height="720" viewBox="0 0 1200 720" fill="none" xmlns="http://www.w3.org/2000/svg">
  <rect width="1200" height="720" rx="24" fill="#020617"/>
  <rect x="28" y="28" width="1144" height="84" rx="14" fill="#0F172A" stroke="#1E293B"/>
  <rect x="48" y="52" width="240" height="14" rx="7" fill="#38BDF8" fill-opacity="0.65"/>
  <rect x="48" y="74" width="320" height="10" rx="5" fill="#334155"/>
  <rect x="986" y="52" width="160" height="36" rx="10" fill="#0369A1"/>

  <rect x="28" y="132" width="182" height="96" rx="14" fill="#0F172A" stroke="#1E293B"/>
  <rect x="222" y="132" width="182" height="96" rx="14" fill="#052E33" stroke="#0E7490"/>
  <rect x="416" y="132" width="182" height="96" rx="14" fill="#3F1D2E" stroke="#9F1239"/>
  <rect x="610" y="132" width="182" height="96" rx="14" fill="#0F172A" stroke="#1E293B"/>
  <rect x="804" y="132" width="182" height="96" rx="14" fill="#1E293B" stroke="#0EA5E9"/>
  <rect x="998" y="132" width="174" height="96" rx="14" fill="#082F49" stroke="#0369A1"/>

  <rect x="28" y="248" width="1144" height="156" rx="14" fill="#0F172A" stroke="#1E293B"/>
  <rect x="48" y="272" width="200" height="12" rx="6" fill="#94A3B8"/>
  <rect x="48" y="300" width="860" height="74" rx="12" fill="#020617" stroke="#1E293B"/>
  <rect x="932" y="300" width="214" height="74" rx="12" fill="#020617" stroke="#1E293B"/>

  <rect x="28" y="424" width="748" height="268" rx="14" fill="#0F172A" stroke="#1E293B"/>
  <path d="M64 640C136 580 196 620 260 560C324 500 392 530 454 490C516 450 578 470 642 430C682 405 718 388 740 380" stroke="#22D3EE" stroke-width="4" stroke-linecap="round"/>
  <circle cx="454" cy="490" r="6" fill="#22D3EE"/>
  <circle cx="642" cy="430" r="6" fill="#22D3EE"/>

  <rect x="796" y="424" width="376" height="268" rx="14" fill="#0F172A" stroke="#1E293B"/>
  <rect x="820" y="452" width="328" height="70" rx="12" fill="#111827" stroke="#334155"/>
  <rect x="820" y="536" width="328" height="70" rx="12" fill="#111827" stroke="#334155"/>
  <circle cx="844" cy="487" r="6" fill="#FB7185"/>
  <circle cx="844" cy="571" r="6" fill="#38BDF8"/>
</svg>
