<svg width="1200" height="720" viewBox="0 0 1200 720" fill="none" xmlns="http://www.w3.org/2000/svg">
  <rect width="1200" height="720" rx="24" fill="#020617"/>
  <rect x="28" y="28" width="1144" height="108" rx="14" fill="#052E2B" stroke="#047857"/>
  <rect x="48" y="58" width="320" height="14" rx="7" fill="#6EE7B7"/>
  <rect x="48" y="82" width="500" height="10" rx="5" fill="#10B981" fill-opacity="0.6"/>

  <rect x="28" y="156" width="1144" height="286" rx="14" fill="#0F172A" stroke="#1E293B"/>
  <rect x="48" y="182" width="260" height="12" rx="6" fill="#94A3B8"/>
  <rect x="48" y="214" width="1104" height="58" rx="10" fill="#020617" stroke="#1E293B"/>
  <rect x="48" y="282" width="1104" height="58" rx="10" fill="#020617" stroke="#1E293B"/>
  <rect x="48" y="350" width="1104" height="58" rx="10" fill="#020617" stroke="#1E293B"/>

  <rect x="76" y="232" width="90" height="22" rx="11" fill="#064E3B"/>
  <rect x="76" y="300" width="90" height="22" rx="11" fill="#7F1D1D"/>
  <rect x="76" y="368" width="90" height="22" rx="11" fill="#064E3B"/>

  <rect x="28" y="462" width="560" height="230" rx="14" fill="#0F172A" stroke="#1E293B"/>
  <path d="M56 650C110 620 162 640 214 604C266 568 320 582 372 548C424 514 470 530 522 498" stroke="#22D3EE" stroke-width="4" stroke-linecap="round"/>

  <rect x="612" y="462" width="560" height="230" rx="14" fill="#0F172A" stroke="#1E293B"/>
  <rect x="636" y="490" width="512" height="76" rx="12" fill="#111827" stroke="#334155"/>
  <rect x="636" y="582" width="512" height="76" rx="12" fill="#111827" stroke="#334155"/>
  <circle cx="660" cy="528" r="6" fill="#FB7185"/>
  <circle cx="660" cy="620" r="6" fill="#38BDF8"/>
</svg>
